<svg viewBox="0 0 518 518" xmlns="http://www.w3.org/2000/svg"><g fill="#fff" stroke="#fff" stroke-width="6" transform="translate(3 3)"><path d="m346 319a10 10 0 0 0 -10 10v69a50.057 50.057 0 0 1 -50 50h-107.968a10 10 0 0 0 -10 9.993l-.014 19.882-23.868-23.867a10 10 0 0 0 -9.171-6.008h-64.979a50.057 50.057 0 0 1 -50-50v-154a50.057 50.057 0 0 1 50-50h101a10 10 0 0 0 0-20h-101a70.079 70.079 0 0 0 -70 70v154a70.079 70.079 0 0 0 70 70h59.858l41.071 41.071a10 10 0 0 0 17.071-7.064l.024-34.007h97.976a70.079 70.079 0 0 0 70-70v-69a10 10 0 0 0 -10-10z"/><path d="m366.655 0h-25.309c-80.146 0-145.346 65.2-145.346 145.346s65.2 145.345 145.345 145.345h25.309a145.623 145.623 0 0 0 36.89-4.729l37.387 37.366a10 10 0 0 0 17.069-7.073v-57.855a146.735 146.735 0 0 0 38.206-47.1 143.78 143.78 0 0 0 15.794-65.954c0-80.146-65.2-145.346-145.345-145.346zm75.328 245.535a10 10 0 0 0 -3.983 7.988v38.6l-24.471-24.458a9.994 9.994 0 0 0 -10.006-2.485 125.38 125.38 0 0 1 -36.868 5.512h-25.309a125.346 125.346 0 1 1 0-250.692h25.309a125.348 125.348 0 0 1 75.328 225.535z"/><path d="m399.033 109.421a42.434 42.434 0 0 0 -39.255-39.254 42.011 42.011 0 0 0 -31.863 11.281 42.488 42.488 0 0 0 -13.453 30.952 10 10 0 1 0 20 0 22.34 22.34 0 0 1 23.938-22.279 22.342 22.342 0 0 1 3.3 44.079 18.924 18.924 0 0 0 -14.9 18.549v24.025a10 10 0 1 0 20 0v-23.226a42.119 42.119 0 0 0 32.234-44.127z"/><path d="m363.87 209.26a10.007 10.007 0 1 0 2.93 7.07 10.076 10.076 0 0 0 -2.93-7.07z"/><path d="m275 310h-211a10 10 0 0 0 0 20h211a10 10 0 0 0 0-20z"/><path d="m282.069 368.93a9.992 9.992 0 1 0 2.931 7.07 10.072 10.072 0 0 0 -2.931-7.07z"/><path d="m235.667 366h-171.667a10 10 0 0 0 0 20h171.667a10 10 0 0 0 0-20z"/><path d="m210 254h-146a10 10 0 0 0 0 20h146a10 10 0 0 0 0-20z"/></g></svg>