<svg viewBox="0 0 512 512" height="32" width="32" xmlns="http://www.w3.org/2000/svg"><g fill="#fff" stroke="white" stroke-width="6"><path d="m346 319c-5.522 0-10 4.477-10 10v69c0 27.57-22.43 50-50 50h-107.968c-5.521 0-9.996 4.473-10 9.993l-.014 19.882-23.868-23.867c-1.545-3.547-5.081-6.008-9.171-6.008h-64.979c-27.57 0-50-22.43-50-50v-154c0-27.57 22.43-50 50-50h101c5.522 0 10-4.477 10-10s-4.478-10-10-10h-101c-38.598 0-70 31.402-70 70v154c0 38.598 31.402 70 70 70h59.858l41.071 41.071c1.913 1.913 4.47 2.929 7.073 2.929 1.287 0 2.586-.249 3.821-.76 3.737-1.546 6.174-5.19 6.177-9.233l.024-34.007h97.976c38.598 0 70-31.402 70-70v-69c0-5.523-4.478-10-10-10z"/><path d="m366.655 0h-25.309c-80.144 0-145.346 65.202-145.346 145.346s65.202 145.345 145.345 145.345h25.309c12.509 0 24.89-1.589 36.89-4.729l37.387 37.366c1.913 1.911 4.469 2.927 7.071 2.927 1.289 0 2.589-.249 3.826-.762 3.736-1.548 6.172-5.194 6.172-9.238v-57.856c15.829-12.819 28.978-29.012 38.206-47.102 10.481-20.546 15.794-42.735 15.794-65.951 0-80.144-65.202-145.346-145.345-145.346zm75.328 245.535c-2.507 1.889-3.983 4.847-3.983 7.988v38.6l-24.471-24.458c-1.904-1.902-4.458-2.927-7.07-2.927-.98 0-1.97.145-2.936.442-11.903 3.658-24.307 5.512-36.868 5.512h-25.309c-69.117 0-125.346-56.23-125.346-125.346s56.23-125.346 125.346-125.346h25.309c69.116 0 125.345 56.23 125.345 125.346 0 39.731-18.23 76.249-50.017 100.189z"/><path d="m399.033 109.421c-1.443-20.935-18.319-37.811-39.255-39.254-11.868-.815-23.194 3.188-31.863 11.281-8.55 7.981-13.453 19.263-13.453 30.954 0 5.523 4.478 10 10 10s10-4.477 10-10c0-6.259 2.522-12.06 7.1-16.333 4.574-4.269 10.552-6.382 16.842-5.948 11.028.76 19.917 9.649 20.677 20.676.768 11.137-6.539 20.979-17.373 23.403-8.778 1.964-14.908 9.592-14.908 18.549v24.025c0 5.523 4.478 10 10 10 5.523 0 10-4.477 9.999-10v-23.226c20.15-4.868 33.669-23.306 32.234-44.127z"/><path d="m363.87 209.26c-1.86-1.86-4.44-2.93-7.07-2.93s-5.21 1.07-7.07 2.93-2.93 4.44-2.93 7.07c0 2.64 1.071 5.22 2.93 7.08 1.86 1.86 4.44 2.92 7.07 2.92s5.21-1.06 7.07-2.92c1.86-1.87 2.93-4.44 2.93-7.08 0-2.63-1.071-5.21-2.93-7.07z"/><path d="m275 310h-211c-5.522 0-10 4.477-10 10s4.478 10 10 10h211c5.523 0 10-4.477 10-10s-4.478-10-10-10z"/><path d="m282.069 368.93c-1.859-1.86-4.439-2.93-7.069-2.93s-5.21 1.07-7.07 2.93c-1.861 1.86-2.93 4.44-2.93 7.07s1.07 5.21 2.93 7.07 4.44 2.93 7.07 2.93 5.21-1.07 7.069-2.93c1.861-1.86 2.931-4.43 2.931-7.07 0-2.63-1.071-5.21-2.931-7.07z"/><path d="m235.667 366h-171.667c-5.522 0-10 4.477-10 10s4.478 10 10 10h171.667c5.523 0 10-4.477 10-10s-4.478-10-10-10z"/><path d="m210 254h-146c-5.522 0-10 4.477-10 10s4.478 10 10 10h146c5.523 0 10-4.477 10-10s-4.478-10-10-10z"/></g></svg>