<svg height="32" viewBox="0 0 34 32" width="34" xmlns="http://www.w3.org/2000/svg"><path d="m25.7865398 7.37051863c0 1.03751255-.7433372 1.66849227-1.2861237 2.13153779-.2055644.17538746-.588189.49540588-.5871677.61494108.0037139.4688949-.3673048.8433504-.8288498.8433504-.0023211 0-.0046423 0-.0069635 0-.4582953 0-.831728-.3629454-.8354419-.8294817-.007335-.91958123.6530894-1.47027331 1.1838057-1.92303522.4164211-.35530347.6894857-.60531787.6894857-.83410462 0-.46313987-.370833-.83995401-.8266214-.83995401-.4559742 0-.8269.37681414-.8269.83995401 0 .46898926-.3740826.84910548-.8356276.84910548s-.8356276-.38011622-.8356276-.84910548c0-1.39951453 1.1205766-2.53816498 2.4979695-2.53816498 1.3774857-.00009435 2.4980623 1.13534838 2.4980623 2.53495725zm-2.6859857 4.37364797c-.461545 0-.817151.3801162-.817151.8491055v.0065098c0 .4689893.3556989.8458978.817151.8458978.4614522 0 .8356276-.3834183.8356276-.8524076s-.3740826-.8491055-.8356276-.8491055zm-16.8433745 5.9147745c-.46154498 0-.83562761.3801162-.83562761.8491055 0 .4689892.37408263.8491054.83562761.8491054h.06963564c.46154499 0 .83562762-.3801162.83562762-.8491054 0-.4689893-.37408263-.8491055-.83562762-.8491055zm2.90417737 0c-.46154499 0-.83562762.3801162-.83562762.8491055 0 .4689892.37408263.8491054.83562762.8491054h.06954278c.46154499 0 .83562765-.3801162.83562765-.8491054 0-.4689893-.37408266-.8491055-.83562765-.8491055zm24.54229033-13.56200715v9.55724825c0 2.2628661-1.7856434 4.0991039-4.012591 4.0991039h-10.8368832c-.211878 0-.3863385-.0012265-.5322948-.0043398-.1529198-.0032078-.3250591-.0044343-.3921879.0031133-.0699142.0471726-.2413107.2067101-.4064864.3613416-.0654575.0612299-.1395498.1285923-.2194915.2027475l-3.0660106 2.8395974c-.2445604.2267112-.6063871.2853938-.9092557.1497256-.3028686-.1357625-.5154894-.440497-.5154894-.7768371v-9.002122h-8.75366353c-1.30562173 0-2.38803803 1.087138-2.38803803 2.4136295v9.5572483c0 1.3265858 1.08250915 2.3695703 2.38803803 2.3695703h12.10490163c.2084427 0 .4034225.0972698.5573637.2401082l2.4978766 2.3401347v-8.0701815c0-.4689893.3740826-.8491055.8356276-.8491055s.8356277.3801162.8356277.8491055v9.9947263c0 .3363401-.189409.636546-.4923704.7723086-.1083531.0485877-.2171703.0677397-.3310942.0677397-.204636 0-.4064865-.0853823-.5634916-.231051l-3.6634843-3.4156683h-11.78095673c-2.22704045 0-4.05929327-1.8048209-4.05929327-4.0677814v-9.5571539c0-2.2628661 1.83225282-4.11184048 4.05929327-4.11184048h8.75366353v-5.73136767c0-2.26296045 1.8462728-4.08051791 4.0733133-4.08051791h12.804879c2.2268548 0 4.0124982 1.81755746 4.0124982 4.08051791zm-1.6712553 0c0-1.32658579-1.0358997-2.38230695-2.3413357-2.38230695h-12.8047862c-1.3055289 0-2.4020581 1.05572116-2.4020581 2.38230695v6.58839815 7.9187577l1.6800758-1.5428246c.0778062-.072174.16499-.1382155.2285906-.1978416.767199-.7183433.9634786-.8331612 1.9641891-.8122166.1364859.0029247.2990619.0039625.4971056.0039625h10.8368832c1.305436 0 2.3413357-1.0744015 2.3413357-2.4008929z" fill="#fff" transform="translate(.206933 .607825)"/></svg>